Chef Academy S01E06 TVRip-XVID Dodecahedron [Dodecahedron]

Episode 6: Squid Pro Quo

Chef Novelli arranges for the students to take a field trip to Long Beach to go out on a fishing boat and learn how to catch fresh fish. After returning to the Academy, the students are given a lesson in other seafood dishes such as scallops and squid.


--

   General

      Format : AVI
      Format/Info : Audio Video Interleave
      File size : 175 MiB
      Duration : 43mn 29s
      Overall bit rate : 563 Kbps
      Writing application : VirtualDubMod 1.5.4.1 (build 2178/release)
      Writing library : VirtualDubMod build 2178/release

   Video

      Format : MPEG-4 Visual
      Format profile : Streaming Video@L1
      Format settings, BVOP : Yes
      Format settings, QPel : No
      Format settings, GMC : No warppoints
      Format settings, Matrix : Custom
      Codec ID : XVID
      Codec ID/Hint : XviD
      Duration : 43mn 29s
      Bit rate : 432 Kbps
      Width : 400 pixels
      Height : 304 pixels
      Display aspect ratio : 4/3
      Frame rate : 23.976 fps
      Resolution : 24 bits
      Colorimetry : 4:2:0
      Scan type : Progressive
      Bits/(Pixel*Frame) : 0.148
      Stream size : 134 MiB (77%)
      Writing library : XviD 50

   Audio

      Format : MPEG Audio
      Format version : Version 1
      Format profile : Layer 3
      Codec ID : 55
      Codec ID/Hint : MP3
      Duration : 43mn 29s
      Bit rate mode : Variable
      Bit rate : 119 Kbps
      Minimum bit rate : 128 Kbps
      Channel(s) : 2 channels
      Sampling rate : 48.0 KHz
      Resolution : 16 bits
      Stream size : 36.9 MiB (21%)
      Alignment : Aligned on interleaves
      Interleave, duration : 24 ms (0.58 video frame)
      Interleave, preload duration : 502 ms
      Writing library : LAME3.98r
      Encoding settings : ABR